<mxfile host="app.diagrams.net" modified="2024-05-02T23:11:36.657Z" agent="Mozilla/5.0 (Windows NT 10.0; Win64; x64) AppleWebKit/537.36 (KHTML, like Gecko) Chrome/123.0.0.0 Safari/537.36 OPR/109.0.0.0" etag="I4BY7rH25q2dN5SMAP5X" version="24.0.2" type="github">
  <diagram name="Page-1" id="DdEg1cDVtEoIRPBLH_Wo">
    <mxGraphModel dx="1823" dy="525" grid="1" gridSize="10" guides="1" tooltips="1" connect="1" arrows="1" fold="1" page="1" pageScale="1" pageWidth="827" pageHeight="1169" math="0" shadow="0">
      <root>
        <mxCell id="0" />
        <mxCell id="1" parent="0" />
        <mxCell id="mXtGVu5ud28bIMlFbWb--1" value="cbi:CognitiveBias" style="rounded=1;arcSize=10;whiteSpace=wrap;html=1;align=center;fillColor=#f0a30a;strokeColor=#BD7000;fontColor=#000000;" vertex="1" parent="1">
          <mxGeometry x="510" y="360" width="150" height="50" as="geometry" />
        </mxCell>
        <mxCell id="mXtGVu5ud28bIMlFbWb--11" value="rdfs:hasSubclass" style="edgeStyle=orthogonalEdgeStyle;rounded=0;orthogonalLoop=1;jettySize=auto;html=1;entryX=0;entryY=0.5;entryDx=0;entryDy=0;" edge="1" parent="1" source="mXtGVu5ud28bIMlFbWb--4" target="mXtGVu5ud28bIMlFbWb--1">
          <mxGeometry relative="1" as="geometry" />
        </mxCell>
        <mxCell id="mXtGVu5ud28bIMlFbWb--12" value="reaction:hasOutcome" style="edgeStyle=orthogonalEdgeStyle;rounded=0;orthogonalLoop=1;jettySize=auto;html=1;" edge="1" parent="1" source="mXtGVu5ud28bIMlFbWb--4" target="mXtGVu5ud28bIMlFbWb--8">
          <mxGeometry relative="1" as="geometry" />
        </mxCell>
        <mxCell id="mXtGVu5ud28bIMlFbWb--4" value="cbi:ContextEffect" style="rounded=1;arcSize=10;whiteSpace=wrap;html=1;align=center;fillColor=#f0a30a;strokeColor=#BD7000;fontColor=#000000;" vertex="1" parent="1">
          <mxGeometry x="240" y="360" width="150" height="50" as="geometry" />
        </mxCell>
        <mxCell id="mXtGVu5ud28bIMlFbWb--13" value="reaction:hasOutcome" style="edgeStyle=orthogonalEdgeStyle;rounded=0;orthogonalLoop=1;jettySize=auto;html=1;" edge="1" parent="1" source="mXtGVu5ud28bIMlFbWb--5">
          <mxGeometry relative="1" as="geometry">
            <mxPoint x="20" y="350" as="targetPoint" />
          </mxGeometry>
        </mxCell>
        <mxCell id="mXtGVu5ud28bIMlFbWb--5" value="fs:Deciding" style="rounded=1;arcSize=10;whiteSpace=wrap;html=1;align=center;fillColor=#f0a30a;strokeColor=#BD7000;fontColor=#000000;" vertex="1" parent="1">
          <mxGeometry x="240" y="270" width="150" height="50" as="geometry" />
        </mxCell>
        <mxCell id="mXtGVu5ud28bIMlFbWb--14" value="cbi:affects" style="edgeStyle=orthogonalEdgeStyle;rounded=0;orthogonalLoop=1;jettySize=auto;html=1;entryX=1;entryY=0.5;entryDx=0;entryDy=0;" edge="1" parent="1" source="mXtGVu5ud28bIMlFbWb--6" target="mXtGVu5ud28bIMlFbWb--5">
          <mxGeometry relative="1" as="geometry" />
        </mxCell>
        <mxCell id="mXtGVu5ud28bIMlFbWb--15" value="cbi:affects" style="edgeStyle=orthogonalEdgeStyle;rounded=0;orthogonalLoop=1;jettySize=auto;html=1;entryX=1;entryY=0.5;entryDx=0;entryDy=0;" edge="1" parent="1" source="mXtGVu5ud28bIMlFbWb--6" target="mXtGVu5ud28bIMlFbWb--9">
          <mxGeometry relative="1" as="geometry">
            <Array as="points">
              <mxPoint x="710" y="295" />
              <mxPoint x="710" y="465" />
            </Array>
          </mxGeometry>
        </mxCell>
        <mxCell id="mXtGVu5ud28bIMlFbWb--6" value="cbi:Context" style="rounded=1;arcSize=10;whiteSpace=wrap;html=1;align=center;fillColor=#f0a30a;strokeColor=#BD7000;fontColor=#000000;" vertex="1" parent="1">
          <mxGeometry x="510" y="270" width="150" height="50" as="geometry" />
        </mxCell>
        <mxCell id="mXtGVu5ud28bIMlFbWb--16" value="emotion:pertainsTo" style="edgeStyle=orthogonalEdgeStyle;rounded=0;orthogonalLoop=1;jettySize=auto;html=1;entryX=0.5;entryY=0;entryDx=0;entryDy=0;" edge="1" parent="1" source="mXtGVu5ud28bIMlFbWb--7" target="mXtGVu5ud28bIMlFbWb--6">
          <mxGeometry relative="1" as="geometry" />
        </mxCell>
        <mxCell id="mXtGVu5ud28bIMlFbWb--17" value="cbi:hasStimulus" style="edgeStyle=orthogonalEdgeStyle;rounded=0;orthogonalLoop=1;jettySize=auto;html=1;exitX=0;exitY=0.5;exitDx=0;exitDy=0;entryX=1;entryY=0.5;entryDx=0;entryDy=0;" edge="1" parent="1" source="mXtGVu5ud28bIMlFbWb--7" target="mXtGVu5ud28bIMlFbWb--10">
          <mxGeometry relative="1" as="geometry" />
        </mxCell>
        <mxCell id="mXtGVu5ud28bIMlFbWb--7" value="dul:Situation" style="rounded=1;arcSize=10;whiteSpace=wrap;html=1;align=center;fillColor=#f0a30a;strokeColor=#BD7000;fontColor=#000000;" vertex="1" parent="1">
          <mxGeometry x="510" y="150" width="150" height="50" as="geometry" />
        </mxCell>
        <mxCell id="mXtGVu5ud28bIMlFbWb--8" value="cbcm:Behaviour" style="rounded=1;arcSize=10;whiteSpace=wrap;html=1;align=center;fillColor=#f0a30a;strokeColor=#BD7000;fontColor=#000000;" vertex="1" parent="1">
          <mxGeometry x="-50" y="360" width="150" height="50" as="geometry" />
        </mxCell>
        <mxCell id="mXtGVu5ud28bIMlFbWb--9" value="sio:SIO_000379" style="rounded=1;arcSize=10;whiteSpace=wrap;html=1;align=center;fillColor=#f0a30a;strokeColor=#BD7000;fontColor=#000000;" vertex="1" parent="1">
          <mxGeometry x="510" y="440" width="150" height="50" as="geometry" />
        </mxCell>
        <mxCell id="mXtGVu5ud28bIMlFbWb--10" value="emotion:Stimulus" style="rounded=1;arcSize=10;whiteSpace=wrap;html=1;align=center;fillColor=#f0a30a;strokeColor=#BD7000;fontColor=#000000;" vertex="1" parent="1">
          <mxGeometry x="240" y="150" width="150" height="50" as="geometry" />
        </mxCell>
      </root>
    </mxGraphModel>
  </diagram>
</mxfile>
